<?xml version="1.0" standalone="no"?>
<!DOCTYPE svg PUBLIC "-//W3C//DTD SVG 20010904//EN"
 "http://www.w3.org/TR/2001/REC-SVG-20010904/DTD/svg10.dtd">
<svg version="1.0" xmlns="http://www.w3.org/2000/svg"
 width="285.000000pt" height="285.000000pt" viewBox="0 0 285.000000 285.000000"
 preserveAspectRatio="xMidYMid meet">
<metadata>
Created by potrace 1.11, written by Peter Selinger 2001-2013
</metadata>
<g transform="translate(0.000000,285.000000) scale(0.100000,-0.100000)"
fill="#000000" stroke="none">
<path d="M317 1845 l-58 -35 -129 0 -130 0 0 -307 1 -308 188 -107 c103 -60
195 -108 203 -108 8 0 101 50 207 111 l191 111 0 304 0 304 -132 0 -131 0 -63
35 c-34 19 -68 35 -76 35 -7 -1 -39 -16 -71 -35z m213 -174 l135 -79 3 -67 c2
-37 -1 -65 -5 -62 -146 80 -383 221 -379 225 8 7 100 61 106 61 3 1 66 -35
140 -78z m-99 -199 l239 -137 0 -36 c0 -31 -4 -38 -30 -49 -29 -12 -39 -7
-280 131 -246 141 -250 144 -250 176 0 25 6 36 28 47 15 9 33 13 41 10 8 -2
121 -66 252 -142z m-126 -182 c99 -57 184 -106 188 -110 5 -4 -15 -22 -44 -40
-61 -37 -47 -41 -220 61 l-119 70 0 65 c0 36 3 63 8 61 4 -2 88 -51 187 -107z"/>
<path d="M1092 1774 c-43 -44 -40 -72 10 -99 22 -11 38 -28 38 -37 0 -25 -37
-23 -50 2 -12 22 -40 27 -40 7 0 -7 7 -23 16 -35 23 -33 78 -30 101 4 21 32
11 51 -40 79 -41 22 -46 32 -21 42 10 4 22 -1 29 -10 7 -10 17 -17 24 -17 18
0 13 25 -9 45 -14 13 -17 22 -10 29 5 5 10 14 10 18 0 18 -27 5 -58 -28z"/>
<path d="M1237 1764 c-4 -4 -7 -45 -7 -91 l0 -83 55 0 c42 0 55 3 55 15 0 10
-11 15 -35 15 l-34 0 -3 72 c-3 65 -13 89 -31 72z"/>
<path d="M1435 1758 c-10 -28 -55 -162 -55 -165 0 -11 32 0 36 12 8 19 60 20
67 0 4 -8 2 -17 -3 -20 -15 -9 -12 -32 5 -39 21 -8 45 3 45 21 0 10 -6 13 -16
9 -13 -5 -14 -4 -6 7 9 10 5 34 -16 97 -27 80 -46 107 -57 78z m27 -83 c4 -20
1 -25 -14 -25 -14 0 -18 5 -14 16 3 9 6 20 6 25 0 20 18 7 22 -16z"/>
<path d="M1575 1754 c-26 -26 -14 -57 30 -80 44 -23 52 -47 17 -52 -17 -3 -25
2 -29 17 -3 12 -13 21 -25 21 -15 0 -18 -5 -13 -22 15 -49 77 -65 110 -28 27
29 13 63 -35 85 -43 19 -50 32 -24 42 10 4 22 -1 29 -10 15 -20 35 -22 35 -4
0 20 -33 47 -58 47 -11 0 -28 -7 -37 -16z"/>
<path d="M1730 1680 c0 -73 3 -90 15 -90 10 0 15 11 15 35 0 44 11 44 41 0 13
-19 32 -35 42 -35 20 0 18 6 -20 56 -29 38 -29 40 2 80 29 38 30 44 11 44 -8
0 -28 -17 -45 -37 l-31 -38 0 38 c0 26 -4 37 -15 37 -12 0 -15 -17 -15 -90z"/>
<path d="M1902 1753 c2 -10 11 -17 21 -17 14 2 17 -8 17 -57 0 -52 -2 -59 -20
-59 -11 0 -20 -7 -20 -15 0 -12 13 -15 55 -15 42 0 55 3 55 15 0 8 -9 15 -20
15 -18 0 -20 7 -20 59 0 49 3 59 17 57 10 0 19 7 21 17 3 15 -5 17 -53 17 -48
0 -56 -2 -53 -17z"/>
<path d="M2067 1763 c-4 -3 -7 -44 -7 -90 l0 -83 55 0 c42 0 55 3 55 15 0 10
-11 15 -35 15 -31 0 -35 3 -35 25 0 21 5 25 30 25 20 0 30 5 30 15 0 10 -10
15 -30 15 -22 0 -30 5 -30 18 0 15 6 17 35 14 30 -4 35 -1 35 17 0 18 -6 21
-48 21 -27 0 -52 -3 -55 -7z"/>
<path d="M2200 1610 c0 -13 7 -20 20 -20 13 0 20 7 20 20 0 13 -7 20 -20 20
-13 0 -20 -7 -20 -20z"/>
<path d="M1740 1500 c-29 -29 -22 -51 25 -76 49 -25 59 -54 20 -54 -18 0 -29
6 -32 20 -7 26 -33 26 -33 1 0 -29 27 -51 64 -51 40 0 56 15 56 53 0 24 -7 31
-40 45 -40 17 -50 34 -28 48 6 4 16 0 23 -9 12 -17 45 -23 45 -9 0 17 -26 41
-52 47 -19 5 -32 1 -48 -15z"/>
<path d="M1060 1495 c0 -8 9 -15 20 -15 18 0 20 -7 20 -55 0 -48 -2 -55 -20
-55 -11 0 -20 -7 -20 -15 0 -12 13 -15 55 -15 42 0 55 3 55 15 0 8 -9 15 -20
15 -18 0 -20 7 -20 55 0 48 2 55 20 55 11 0 20 7 20 15 0 12 -13 15 -55 15
-42 0 -55 -3 -55 -15z"/>
<path d="M1220 1425 c0 -69 3 -85 15 -85 11 0 15 13 16 53 l0 52 27 -53 c39
-78 56 -68 60 36 3 77 2 82 -18 82 -17 0 -20 -7 -20 -47 l-1 -48 -25 48 c-39
74 -54 63 -54 -38z"/>
<path d="M1385 1463 c15 -121 16 -123 36 -123 14 0 19 7 19 26 0 14 4 23 10
19 6 -3 10 -15 10 -26 0 -12 7 -19 19 -19 17 0 20 10 26 68 4 37 9 75 11 85 4
12 0 17 -15 17 -18 0 -21 -6 -22 -52 -1 -42 -3 -47 -8 -23 -8 36 -32 39 -42 5
-7 -23 -7 -23 -8 7 -1 43 -10 63 -28 63 -11 0 -13 -10 -8 -47z"/>
<path d="M1570 1425 l0 -85 50 0 c38 0 50 4 50 15 0 10 -11 15 -35 15 -30 0
-35 3 -35 23 0 18 5 22 32 22 17 0 33 6 35 13 3 8 -7 12 -31 12 -29 0 -36 4
-36 20 0 16 7 20 35 20 24 0 35 5 35 15 0 11 -12 15 -50 15 l-50 0 0 -85z"/>
<path d="M1880 1495 c0 -9 9 -15 25 -15 24 0 25 -2 25 -70 0 -56 3 -70 15 -70
12 0 15 14 15 70 l0 70 30 0 c20 0 30 5 30 15 0 12 -14 15 -70 15 -56 0 -70
-3 -70 -15z"/>
<path d="M2060 1437 c0 -83 8 -97 60 -97 52 0 60 14 60 97 0 57 -3 73 -15 73
-11 0 -15 -16 -17 -67 -3 -65 -4 -68 -28 -68 -24 0 -25 3 -28 68 -2 51 -6 67
-17 67 -12 0 -15 -16 -15 -73z"/>
<path d="M2250 1495 c0 -10 10 -15 30 -15 29 0 30 -1 30 -50 0 -56 -22 -78
-45 -47 -15 20 -35 22 -35 4 0 -22 34 -47 63 -47 36 0 47 25 47 104 l0 66 -45
0 c-33 0 -45 -4 -45 -15z"/>
<path d="M2400 1425 l0 -85 55 0 c42 0 55 3 55 15 0 11 -11 15 -40 15 -35 0
-40 3 -40 23 0 20 4 23 35 19 27 -3 35 -1 35 12 0 12 -9 16 -35 16 -28 0 -35
4 -35 20 0 17 7 20 40 20 29 0 40 4 40 15 0 12 -13 15 -55 15 l-55 0 0 -85z"/>
<path d="M2560 1425 c0 -69 3 -85 15 -85 11 0 15 12 16 43 1 40 1 41 11 15 13
-38 24 -35 36 10 l10 37 1 -52 c1 -40 5 -53 16 -53 12 0 15 16 15 85 0 77 -2
85 -19 85 -14 0 -23 -12 -32 -37 l-13 -38 -9 38 c-6 26 -14 37 -28 37 -17 0
-19 -8 -19 -85z"/>
<path d="M2720 1505 c0 -3 11 -23 25 -45 16 -25 25 -54 25 -80 0 -29 4 -40 15
-40 10 0 15 10 15 33 0 17 11 52 25 76 28 48 31 61 13 61 -7 0 -21 -15 -32
-33 l-18 -32 -16 33 c-9 19 -23 32 -34 32 -10 0 -18 -2 -18 -5z"/>
<path d="M1054 1199 c3 -34 6 -73 6 -85 0 -39 37 -32 48 9 l8 32 7 -32 c7 -36
32 -45 41 -15 2 9 8 47 12 85 5 58 4 67 -10 67 -11 0 -16 -9 -16 -27 0 -16 -5
-35 -10 -43 -8 -12 -10 -11 -10 8 0 13 -6 22 -15 22 -8 0 -15 -9 -15 -21 0
-11 -4 -17 -10 -14 -5 3 -10 22 -10 41 0 25 -4 34 -16 34 -15 0 -16 -9 -10
-61z"/>
<path d="M1280 1245 c0 -10 10 -15 30 -15 l30 0 0 -70 c0 -56 3 -70 15 -70 12
0 15 14 15 69 0 67 1 70 25 73 54 7 27 23 -42 26 -60 2 -73 0 -73 -13z"/>
<path d="M1471 1188 c-13 -40 -26 -79 -28 -85 -3 -7 2 -13 11 -13 9 0 19 7 22
15 4 8 18 15 34 15 16 0 30 -7 34 -15 3 -8 13 -15 22 -15 9 0 14 6 11 13 -2 6
-15 45 -28 85 -16 50 -28 72 -39 72 -11 0 -23 -22 -39 -72z m52 -18 c4 -14 0
-20 -13 -20 -13 0 -16 6 -12 25 5 28 17 26 25 -5z"/>
<path d="M1630 1175 l0 -85 55 0 c42 0 55 3 55 15 0 11 -11 15 -40 15 l-40 0
0 70 c0 56 -3 70 -15 70 -12 0 -15 -16 -15 -85z"/>
<path d="M1790 1175 l0 -85 50 0 c38 0 50 4 50 15 0 10 -11 15 -35 15 -28 0
-35 4 -35 20 0 16 7 20 35 20 24 0 35 5 35 15 0 10 -11 15 -35 15 -28 0 -35 4
-35 20 0 16 7 20 35 20 24 0 35 5 35 15 0 11 -12 15 -50 15 l-50 0 0 -85z"/>
<path d="M1940 1175 c0 -80 1 -85 21 -85 20 0 21 4 17 57 l-5 56 29 -56 c42
-84 58 -77 58 28 0 69 -3 85 -15 85 -11 0 -15 -13 -16 -52 l0 -53 -27 53 c-17
33 -32 52 -44 52 -16 0 -18 -10 -18 -85z"/>
<path d="M2100 1245 c0 -10 10 -15 30 -15 l30 0 0 -70 c0 -56 3 -70 15 -70 12
0 15 14 15 70 0 68 1 70 25 70 16 0 25 6 25 15 0 12 -14 15 -70 15 -56 0 -70
-3 -70 -15z"/>
<path d="M2280 1253 c0 -5 12 -26 25 -48 15 -24 25 -55 25 -77 0 -27 4 -38 15
-38 10 0 15 10 15 33 0 17 11 52 25 76 28 49 31 61 12 61 -8 0 -22 -16 -33
-35 l-19 -35 -18 35 c-15 30 -48 49 -47 28z"/>
</g>
</svg>
